<svg width="167" height="30" viewBox="0 0 167 30" fill="none" xmlns="http://www.w3.org/2000/svg">
<path d="M32.9467 0.16748L26.9899 23.3092L50.1317 29.266L56.0884 6.12424L32.9467 0.16748ZM43.226 17.5633L38.6926 16.4036L39.8523 11.8701L44.3858 13.0299L43.226 17.5633Z" fill="white"/>
<path d="M15.6035 2.75049C21.613 2.75049 24.3015 6.33508 24.3015 9.91968C24.3015 12.1337 23.3526 13.9787 21.5603 15.1911C24.1433 18.0905 25.672 22.044 26.1992 26.6302H15.2345C14.7601 20.3045 13.4422 17.7742 10.5956 17.7742V26.6302H0V2.75049H15.6035ZM10.5956 12.2918H10.8592C12.8097 12.2918 13.7058 11.6065 13.7058 10.0251C13.7058 9.02353 13.1787 7.65295 11.2282 7.65295H10.5956V12.2918Z" fill="white"/>
<path d="M73.537 2.75049C81.286 2.75049 82.8147 6.65137 82.8147 9.44525C82.8147 11.3957 82.1294 13.188 79.7046 14.5586C82.7093 16.14 83.4473 17.985 83.4473 20.0409C83.4473 23.7309 80.8643 26.6302 75.2765 26.6302H58.6187V2.75049H73.537ZM69.1616 12.2391H69.4252C71.7447 12.2391 72.5881 11.6065 72.5881 9.91968C72.5881 8.60181 71.9555 7.60024 69.7942 7.60024H69.1616V12.2391ZM69.1616 21.4115H69.4779C71.9028 21.4115 72.8517 20.7262 72.8517 18.9339C72.8517 17.3524 72.1137 16.2454 69.8996 16.2454H69.1616V21.4115Z" fill="white"/>
<path d="M86.6629 2.75049H97.2585V20.6208H106.536V26.6302H86.6629V2.75049Z" fill="white"/>
<path d="M109.752 2.75049V26.6302H133.632V2.75049H109.752ZM124.038 17.0362H119.346V12.3973H123.985V17.0362H124.038Z" fill="white"/>
<path d="M136.478 2.75049H148.023L151.555 7.1258L154.928 2.75049H166.42L157.353 14.5059L167 26.6829H155.403L151.607 21.9386L147.97 26.6829H136.478L145.809 14.6113L136.478 2.75049Z" fill="white"/>
</svg>
